<svg width="100" height="100" viewBox="0 0 100 100" fill="none" xmlns="http://www.w3.org/2000/svg">
  <!-- Background Circle -->
  <circle cx="50" cy="50" r="48" fill="#F8FAFC" stroke="#E2E8F0" stroke-width="2"/>
  
  <!-- Anvil Base -->
  <path d="M35 60 L65 60 L65 70 L35 70 Z" fill="#2563EB"/>
  
  <!-- Anvil Body -->
  <path d="M30 40 L70 40 L75 60 L25 60 Z" fill="#2563EB"/>
  
  <!-- Anvil Horn -->
  <path d="M70 40 L85 40 L85 50 L75 50 Z" fill="#7C3AED"/>
  
  <!-- Circuit Nodes -->
  <circle cx="40" cy="25" r="4" fill="#06B6D4"/>
  <circle cx="60" cy="20" r="4" fill="#06B6D4"/>
  <circle cx="75" cy="25" r="4" fill="#06B6D4"/>
  
  <!-- Circuit Lines -->
  <line x1="40" y1="25" x2="40" y2="40" stroke="#06B6D4" stroke-width="3"/>
  <line x1="60" y1="20" x2="60" y2="40" stroke="#06B6D4" stroke-width="3"/>
  <line x1="75" y1="25" x2="75" y2="40" stroke="#06B6D4" stroke-width="3"/>
  <line x1="40" y1="25" x2="60" y2="20" stroke="#06B6D4" stroke-width="3"/>
  <line x1="60" y1="20" x2="75" y2="25" stroke="#06B6D4" stroke-width="3"/>
  
  <!-- Growth Arrow -->
  <path d="M50 75 L50 88 L43 81 M50 88 L57 81" stroke="#F97316" stroke-width="3.5" stroke-linecap="round" stroke-linejoin="round"/>
</svg>